<svg version="1.1" xmlns="http://www.w3.org/2000/svg" xmlns:xlink="http://www.w3.org/1999/xlink" width="452" height="294"><defs/><g><g transform="translate(-70,-126) scale(1,1)"><path fill="#ffffff" stroke="none" d="M 122.42521946022728 257.68 C 122.42521946022728 252.886167936 126.31106178517274 249 131.1044921875 249 C 135.89792258982726 249 139.78376491477272 252.886167936 139.78376491477272 257.68 C 139.78376491477272 262.473832064 135.89792258982726 266.36 131.1044921875 266.36 C 126.31106178517274 266.36 122.42521946022728 262.473832064 122.42521946022728 257.68 Z"/></g><g transform="translate(-70,-126) scale(1,1)"><path fill="none" stroke="#000000" d="M 122.42521946022728 257.68 C 122.42521946022728 252.886167936 126.31106178517274 249 131.1044921875 249 C 135.89792258982726 249 139.78376491477272 252.886167936 139.78376491477272 257.68 C 139.78376491477272 262.473832064 135.89792258982726 266.36 131.1044921875 266.36 C 126.31106178517274 266.36 122.42521946022728 262.473832064 122.42521946022728 257.68 Z" stroke-miterlimit="10"/></g><g transform="translate(-70,-126) scale(1,1)"><path fill="none" stroke="#000000" d="M 131.1044921875 266.36 L 131.1044921875 283.64" stroke-miterlimit="10"/></g><g transform="translate(-70,-126) scale(1,1)"><path fill="none" stroke="#000000" d="M 121.91467400568183 272.84 L 140.29431036931817 272.84" stroke-miterlimit="10"/></g><g transform="translate(-70,-126) scale(1,1)"><path fill="none" stroke="#000000" d="M 131.1044921875 283.64 L 118.34085582386365 301" stroke-miterlimit="10"/></g><g transform="translate(-70,-126) scale(1,1)"><path fill="none" stroke="#000000" d="M 131.1044921875 283.64 L 143.86812855113635 301" stroke-miterlimit="10"/></g><g transform="translate(-70,-126) scale(1,1)"><g><path fill="none" stroke="none"/><text fill="#000000" stroke="none" font-family="Arial" font-size="13px" font-style="normal" font-weight="bold" text-decoration="none" x="87.385009765625" y="321.5">Representative</text></g></g><g transform="translate(-70,-126) scale(1,1)"><path fill="#C0C0C0" stroke="none" d="M 207 160 C 207 150.6111584 263.85983039999996 143 334 143 C 404.14016960000004 143 461 150.6111584 461 160 C 461 169.3888416 404.14016960000004 177 334 177 C 263.85983039999996 177 207 169.3888416 207 160 Z" opacity="0.2"/></g><g transform="translate(-70,-126) scale(1,1)"><path fill="#ffffff" stroke="none" d="M 200 153 C 200 143.6111584 256.85983039999996 136 327 136 C 397.14016960000004 136 454 143.6111584 454 153 C 454 162.3888416 397.14016960000004 170 327 170 C 256.85983039999996 170 200 162.3888416 200 153 Z"/></g><g transform="translate(-70,-126) scale(1,1)"><path fill="none" stroke="#000000" d="M 200 153 C 200 143.6111584 256.85983039999996 136 327 136 C 397.14016960000004 136 454 143.6111584 454 153 C 454 162.3888416 397.14016960000004 170 327 170 C 256.85983039999996 170 200 162.3888416 200 153 Z" stroke-miterlimit="10"/></g><g transform="translate(-70,-126) scale(1,1)"><g><path fill="none" stroke="none"/><text fill="#000000" stroke="none" font-family="Arial" font-size="13px" font-style="normal" font-weight="bold" text-decoration="none" x="248.235107421875" y="160">Issue requirement proposal</text></g></g><g transform="translate(-70,-126) scale(1,1)"><path fill="none" stroke="#000000" d="M 183 251 L 301 171" stroke-miterlimit="10"/></g><g transform="translate(-70,-126) scale(1,1)"><path fill="#C0C0C0" stroke="none" d="M 239 240 C 239 230.6111584 300.1131248 223 375.5 223 C 450.8868752 223 512 230.6111584 512 240 C 512 249.3888416 450.8868752 257 375.5 257 C 300.1131248 257 239 249.3888416 239 240 Z" opacity="0.2"/></g><g transform="translate(-70,-126) scale(1,1)"><path fill="#ffffff" stroke="none" d="M 232 233 C 232 223.6111584 293.1131248 216 368.5 216 C 443.8868752 216 505 223.6111584 505 233 C 505 242.3888416 443.8868752 250 368.5 250 C 293.1131248 250 232 242.3888416 232 233 Z"/></g><g transform="translate(-70,-126) scale(1,1)"><path fill="none" stroke="#000000" d="M 232 233 C 232 223.6111584 293.1131248 216 368.5 216 C 443.8868752 216 505 223.6111584 505 233 C 505 242.3888416 443.8868752 250 368.5 250 C 293.1131248 250 232 242.3888416 232 233 Z" stroke-miterlimit="10"/></g><g transform="translate(-70,-126) scale(1,1)"><g><path fill="none" stroke="none"/><text fill="#000000" stroke="none" font-family="Arial" font-size="13px" font-style="normal" font-weight="bold" text-decoration="none" x="283.952392578125" y="240">Publish requirement proposal</text></g></g><g transform="translate(-70,-126) scale(1,1)"><path fill="#C0C0C0" stroke="none" d="M 247 312 C 247 302.6111584 306.76997919999997 295 380.5 295 C 454.23002080000003 295 514 302.6111584 514 312 C 514 321.3888416 454.23002080000003 329 380.5 329 C 306.76997919999997 329 247 321.3888416 247 312 Z" opacity="0.2"/></g><g transform="translate(-70,-126) scale(1,1)"><path fill="#ffffff" stroke="none" d="M 240 305 C 240 295.6111584 299.76997919999997 288 373.5 288 C 447.23002080000003 288 507 295.6111584 507 305 C 507 314.3888416 447.23002080000003 322 373.5 322 C 299.76997919999997 322 240 314.3888416 240 305 Z"/></g><g transform="translate(-70,-126) scale(1,1)"><path fill="none" stroke="#000000" d="M 240 305 C 240 295.6111584 299.76997919999997 288 373.5 288 C 447.23002080000003 288 507 295.6111584 507 305 C 507 314.3888416 447.23002080000003 322 373.5 322 C 299.76997919999997 322 240 314.3888416 240 305 Z" stroke-miterlimit="10"/></g><g transform="translate(-70,-126) scale(1,1)"><g><path fill="none" stroke="none"/><text fill="#000000" stroke="none" font-family="Arial" font-size="13px" font-style="normal" font-weight="bold" text-decoration="none" x="290.037841796875" y="312">Cancel requirement proposal</text></g></g><g transform="translate(-70,-126) scale(1,1)"><path fill="#C0C0C0" stroke="none" d="M 167 400 C 167 390.6111584 245.7978752 383 343 383 C 440.2021248 383 519 390.6111584 519 400 C 519 409.3888416 440.2021248 417 343 417 C 245.7978752 417 167 409.3888416 167 400 Z" opacity="0.2"/></g><g transform="translate(-70,-126) scale(1,1)"><path fill="#ffffff" stroke="none" d="M 160 393 C 160 383.6111584 238.7978752 376 336 376 C 433.2021248 376 512 383.6111584 512 393 C 512 402.3888416 433.2021248 410 336 410 C 238.7978752 410 160 402.3888416 160 393 Z"/></g><g transform="translate(-70,-126) scale(1,1)"><path fill="none" stroke="#000000" d="M 160 393 C 160 383.6111584 238.7978752 376 336 376 C 433.2021248 376 512 383.6111584 512 393 C 512 402.3888416 433.2021248 410 336 410 C 238.7978752 410 160 402.3888416 160 393 Z" stroke-miterlimit="10"/></g><g transform="translate(-70,-126) scale(1,1)"><g><path fill="none" stroke="none"/><text fill="#000000" stroke="none" font-family="Arial" font-size="13px" font-style="normal" font-weight="bold" text-decoration="none" x="226.1728515625" y="400">Modify requirement proposal versionly</text></g></g><g transform="translate(-70,-126) scale(1,1)"><path fill="none" stroke="#000000" d="M 183 275 L 289 251" stroke-miterlimit="10"/></g><g transform="translate(-70,-126) scale(1,1)"><path fill="none" stroke="#000000" d="M 183 291 L 239 295" stroke-miterlimit="10"/></g><g transform="translate(-70,-126) scale(1,1)"><path fill="none" stroke="#000000" d="M 183 314 L 301 375" stroke-miterlimit="10"/></g></g></svg>